<?xml version="1.0" standalone="no"?>
<!DOCTYPE svg PUBLIC "-//W3C//DTD SVG 20010904//EN"
 "http://www.w3.org/TR/2001/REC-SVG-20010904/DTD/svg10.dtd">
<svg version="1.0" xmlns="http://www.w3.org/2000/svg"
 width="414.000000pt" height="414.000000pt" viewBox="0 0 414.000000 414.000000"
 preserveAspectRatio="xMidYMid meet">
<metadata>
Created by potrace 1.14, written by Peter Selinger 2001-2017
</metadata>
<g transform="translate(0.000000,414.000000) scale(0.100000,-0.100000)"
fill="#000000" stroke="none">
<path d="M5 4128 c-3 -7 -4 -938 -3 -2068 l3 -2055 2065 0 2065 0 0 2065 0
2065 -2063 3 c-1645 2 -2064 0 -2067 -10z m4075 -2058 l0 -2010 -2010 0 -2010
0 0 2010 0 2010 2010 0 2010 0 0 -2010z"/>
<path d="M1388 3984 c-35 -18 -50 -67 -34 -109 9 -22 30 -39 74 -63 62 -33 76
-54 50 -80 -31 -31 -98 -5 -98 38 0 23 -4 30 -20 30 -29 0 -26 -45 5 -75 20
-21 34 -25 80 -25 49 0 60 4 86 29 56 57 31 118 -69 162 -53 24 -63 32 -60 51
4 33 49 46 82 24 14 -9 26 -25 26 -36 0 -13 7 -20 20 -20 23 0 23 -2 10 37
-18 50 -94 69 -152 37z"/>
<path d="M1791 3982 c-46 -23 -71 -73 -71 -140 0 -64 20 -106 60 -127 32 -17
107 -20 130 -5 9 5 19 5 27 -1 23 -20 31 0 29 73 l-1 73 -62 3 c-52 2 -63 0
-63 -13 0 -9 9 -15 26 -15 24 0 25 -3 22 -46 -4 -61 -30 -81 -59 -45 -25 31
-28 174 -3 209 28 40 84 23 84 -26 0 -18 4 -23 16 -18 9 3 18 6 20 6 14 0 -1
36 -25 61 -35 34 -78 38 -130 11z"/>
<path d="M2010 3848 l0 -148 40 0 40 0 0 70 c0 63 2 70 19 70 27 0 35 -16 41
-80 l5 -55 46 -3 47 -3 -13 63 c-7 34 -20 67 -28 73 -13 9 -11 14 10 33 18 16
23 30 21 53 -5 51 -38 68 -141 71 l-87 3 0 -147z m134 106 c30 -30 11 -84 -29
-84 -23 0 -25 4 -25 50 0 43 3 50 19 50 11 0 27 -7 35 -16z"/>
<path d="M2333 3980 c-37 -22 -48 -41 -57 -95 -10 -61 8 -125 44 -157 25 -23
39 -28 85 -28 46 0 60 4 87 29 30 27 33 34 36 103 5 87 -11 129 -58 153 -40
21 -99 19 -137 -5z m92 -16 c24 -24 18 -222 -7 -238 -14 -8 -22 -7 -35 7 -15
15 -18 35 -18 116 0 68 4 103 14 114 17 21 25 21 46 1z"/>
<path d="M2582 3992 c-8 -2 -12 -35 -12 -113 0 -153 16 -178 113 -179 48 0 62
4 82 25 24 23 25 30 25 145 0 73 -4 120 -10 120 -6 0 -10 -35 -11 -82 -2 -108
-6 -148 -20 -164 -14 -17 -75 -18 -85 -2 -4 7 -10 66 -13 132 -6 119 -6 120
-31 121 -14 1 -31 0 -38 -3z"/>
<path d="M1070 3845 l0 -145 73 0 c122 0 170 40 171 145 1 64 -19 112 -55 130
-18 10 -58 15 -109 15 l-80 0 0 -145z m148 80 c16 -47 9 -162 -10 -181 -7 -7
-22 -14 -33 -16 -19 -3 -20 3 -23 120 l-3 123 28 -3 c23 -2 31 -11 41 -43z"/>
<path d="M2840 3844 l0 -145 43 3 42 3 3 58 c3 55 4 57 31 57 41 0 90 19 101
40 17 32 12 88 -10 110 -17 17 -33 20 -115 20 l-95 0 0 -146z m134 110 c19
-18 21 -75 4 -92 -7 -7 -21 -12 -33 -12 -20 0 -21 7 -16 108 1 17 26 15 45 -4z"/>
<path d="M520 2070 l0 -1550 1550 0 1550 0 0 1550 0 1550 -1550 0 -1550 0 0
-1550z m3040 0 l0 -1490 -1490 0 -1490 0 0 1490 0 1490 1490 0 1490 0 0 -1490z"/>
<path d="M1697 3350 c-58 -11 -87 -44 -87 -101 0 -36 6 -55 24 -76 23 -26 29
-28 104 -28 71 0 83 3 106 24 32 30 41 71 26 116 -18 54 -88 80 -173 65z"/>
<path d="M2070 3348 c-54 -9 -79 -33 -87 -81 -8 -51 13 -96 53 -113 71 -30
179 -11 204 35 18 35 12 98 -12 126 -28 30 -93 44 -158 33z"/>
<path d="M730 2765 l0 -565 165 0 165 0 0 260 0 260 175 0 175 0 0 60 0 60
-175 0 -175 0 0 190 0 190 205 0 205 0 0 55 0 55 -370 0 -370 0 0 -565z"/>
<path d="M2470 2765 l0 -565 165 0 165 0 0 270 0 270 48 0 c55 0 108 -24 136
-62 17 -24 21 -52 29 -200 5 -95 14 -195 21 -223 l11 -50 178 -3 c97 -1 177
-1 177 0 0 2 -9 27 -20 55 -11 29 -27 110 -35 180 -16 137 -24 172 -48 219
-16 32 -69 71 -125 94 l-34 13 69 32 c116 54 165 126 166 239 0 140 -95 241
-265 281 -48 11 -132 15 -350 15 l-288 0 0 -565z m500 436 c51 -25 80 -88 80
-171 0 -48 -6 -77 -22 -110 -28 -54 -70 -77 -160 -86 l-68 -7 0 203 0 203 68
-7 c37 -4 83 -15 102 -25z"/>
<path d="M1660 3043 c-36 -2 -80 -5 -97 -8 l-33 -6 0 -337 c0 -204 4 -352 11
-375 45 -163 296 -183 439 -35 l40 40 0 -61 0 -62 150 3 150 3 0 420 0 420
-117 -3 c-65 -1 -132 -5 -150 -7 l-32 -6 -3 -287 c-3 -267 -4 -290 -24 -332
-12 -25 -30 -53 -41 -62 -28 -26 -74 -32 -98 -14 -19 14 -20 28 -23 365 l-3
351 -52 -2 c-29 -1 -81 -3 -117 -5z"/>
<path d="M1980 1863 c-65 -33 -73 -139 -14 -178 35 -23 120 -30 169 -13 78 26
97 133 32 182 -38 28 -139 34 -187 9z"/>
<path d="M1210 1855 c-73 -21 -127 -54 -178 -109 -52 -56 -72 -103 -79 -187
-9 -100 22 -191 87 -262 63 -69 122 -107 241 -155 202 -83 265 -156 224 -260
-24 -59 -69 -84 -160 -90 -197 -12 -298 99 -255 283 5 22 7 41 5 44 -3 2 -31
-1 -62 -8 -104 -22 -96 -12 -91 -110 8 -163 87 -251 257 -287 135 -28 294 -14
392 37 183 93 241 319 126 490 -59 90 -167 162 -335 225 -102 39 -157 70 -192
110 -29 34 -32 42 -28 86 9 84 63 118 189 118 158 0 232 -65 233 -203 l0 -69
31 7 c16 3 50 9 74 12 l44 6 -7 59 c-12 118 -67 198 -168 243 -55 25 -77 29
-178 32 -81 2 -131 -2 -170 -12z"/>
<path d="M2400 1285 l0 -565 400 0 400 0 0 55 0 55 -235 0 -235 0 0 225 0 225
170 0 170 0 0 60 0 60 -170 0 -170 0 0 170 0 170 200 0 200 0 0 55 0 55 -365
0 -365 0 0 -565z"/>
<path d="M2188 1575 c-3 -3 -66 -9 -139 -13 l-134 -7 -3 -417 -2 -418 150 0
150 0 0 430 c0 237 -4 430 -8 430 -5 0 -11 -2 -14 -5z"/>
<path d="M1539 431 c-21 -22 -29 -39 -29 -65 0 -20 4 -36 9 -36 5 0 16 -3 25
-6 13 -5 16 2 16 38 0 24 5 49 12 56 20 20 66 15 78 -8 18 -33 -4 -80 -66
-140 -58 -58 -89 -104 -79 -120 3 -6 57 -10 121 -10 l114 0 0 40 0 40 -62 0
-61 0 61 58 c53 49 62 62 62 92 0 61 -39 90 -118 90 -46 0 -58 -4 -83 -29z"/>
<path d="M1848 444 c-42 -22 -58 -63 -58 -147 0 -60 4 -80 23 -108 46 -69 162
-73 211 -6 48 65 27 231 -34 262 -37 19 -107 19 -142 -1z m92 -23 c16 -31 13
-223 -4 -247 -14 -18 -16 -18 -33 -1 -15 15 -18 35 -18 120 0 125 25 183 55
128z"/>
<path d="M2145 450 c-46 -18 -69 -84 -40 -113 27 -28 41 -21 37 17 -5 47 12
76 46 76 84 0 60 -92 -52 -200 -28 -27 -46 -53 -46 -67 0 -23 2 -23 119 -23
l120 0 -2 38 -3 37 -63 3 -63 3 60 54 c33 30 63 66 66 79 9 36 -9 73 -43 91
-32 16 -103 19 -136 5z"/>
<path d="M2421 435 c-40 -34 -55 -83 -48 -163 6 -78 28 -112 85 -130 58 -19
118 0 149 47 19 28 23 48 23 108 0 47 -6 85 -15 103 -32 63 -138 81 -194 35z
m100 -12 c10 -11 14 -47 14 -124 0 -90 -3 -111 -17 -126 -32 -31 -43 -3 -46
117 -4 132 12 178 49 133z"/>
</g>
</svg>
