<?xml version="1.0" encoding="UTF-8"?>
<!DOCTYPE svg PUBLIC "-//W3C//DTD SVG 1.1//EN" "http://www.w3.org/Graphics/SVG/1.1/DTD/svg11.dtd">
<!-- Creator: CorelDRAW X8 -->
<svg xmlns="http://www.w3.org/2000/svg" xml:space="preserve" width="512px" height="512px" version="1.1" style="shape-rendering:geometricPrecision; text-rendering:geometricPrecision; image-rendering:optimizeQuality; fill-rule:evenodd; clip-rule:evenodd"
viewBox="0 0 512 512"
 xmlns:xlink="http://www.w3.org/1999/xlink">
 <defs>
  <style type="text/css">
   <![CDATA[
    .fil0 {fill:none}
    .fil1 {fill:#C7C7C7}
   ]]>
  </style>
 </defs>
 <g id="Слой_x0020_1">
  <metadata id="CorelCorpID_0Corel-Layer"/>
  <rect class="fil0" width="512" height="512"/>
  <g id="_1808322776512">
   <path class="fil1" d="M223 238l0 0c-18,0 -33,-15 -33,-33 0,-18 15,-33 33,-33l0 0c19,0 33,15 33,33 0,18 -14,33 -33,33l0 0zm0 -59c-14,0 -26,12 -26,26 0,15 12,26 26,26l0 0c15,0 27,-11 27,-26 0,-14 -12,-26 -27,-26l0 0z"/>
   <path class="fil1" d="M375 340l-238 0c0,0 0,0 0,0 -3,0 -4,-1 -5,-3 -1,-1 -1,-2 -1,-2 0,-2 0,-2 1,-4l54 -69c1,-1 2,-2 4,-2 0,0 0,0 0,0 1,0 3,1 4,2l34 39 62 -84c1,-2 2,-2 4,-2 2,0 3,0 5,2l81 114 0 0c0,2 0,2 0,4 0,0 0,1 0,2 -1,1 -3,3 -5,3l0 0zm-236 -7l234 0 -79 -111 -66 87c-1,1 -2,2 -4,2 0,0 0,0 0,0 -2,0 -3,-1 -4,-2l-34 -39 -47 63 0 0z"/>
   <line class="fil0" x1="295" y1="221" x2="295" y2= "221" />
   <line class="fil0" x1="293" y1="221" x2="293" y2= "221" />
   <line class="fil0" x1="191" y1="267" x2="191" y2= "267" />
   <line class="fil0" x1="189" y1="267" x2="189" y2= "267" />
   <line class="fil0" x1="229" y1="302" x2="229" y2= "302" />
   <line class="fil0" x1="227" y1="302" x2="227" y2= "302" />
   <path class="fil1" d="M384 394l-256 0c-16,0 -30,-14 -30,-30l0 -217c0,-16 14,-29 30,-29l256 0c16,0 30,13 30,29l0 217c0,16 -14,30 -30,30l0 0zm-256 -269c-13,0 -23,10 -23,22l0 217c0,13 10,23 23,23l256 0c13,0 23,-10 23,-23l0 -217c0,-12 -10,-22 -23,-22l-256 0z"/>
  </g>
 </g>
</svg>
